<svg class="hero-svg" width="100" height="100" viewBox="0 0 100 100" fill="none" xmlns="http://www.w3.org/2000/svg">
          <circle cx="8.63934" cy="23.9182" r="1.63934" fill="#00b3b3"/>
          <circle cx="8.63934" cy="10.6393" r="1.63934" fill="#00b3b3"/>
          <circle cx="16.9182" cy="23.9182" r="1.63934" fill="#00b3b3"/>
          <circle cx="16.9182" cy="10.6393" r="1.63934" fill="#00b3b3"/>
          <circle cx="25.197" cy="23.9182" r="1.63934" fill="#00b3b3"/>
          <circle cx="25.197" cy="10.6393" r="1.63934" fill="#00b3b3"/>
          <circle cx="33.4758" cy="23.9182" r="1.63934" fill="#00b3b3"/>
          <circle cx="33.4758" cy="10.6393" r="1.63934" fill="#00b3b3"/>
          <circle cx="41.7546" cy="23.9182" r="1.63934" fill="#00b3b3"/>
          <circle cx="41.7546" cy="10.6393" r="1.63934" fill="#00b3b3"/>
          <circle cx="50.0334" cy="23.9182" r="1.63934" fill="#00b3b3"/>
          <circle cx="50.0334" cy="10.6393" r="1.63934" fill="#00b3b3"/>
          <circle cx="58.3122" cy="23.9182" r="1.63934" fill="#00b3b3"/>
          <circle cx="58.3122" cy="10.6393" r="1.63934" fill="#00b3b3"/>
          <circle cx="66.591" cy="23.9182" r="1.63934" fill="#00b3b3"/>
          <circle cx="66.591" cy="10.6393" r="1.63934" fill="#00b3b3"/>
          <circle cx="74.8698" cy="23.9182" r="1.63934" fill="#00b3b3"/>
          <circle cx="74.8698" cy="10.6393" r="1.63934" fill="#00b3b3"/>
          <circle cx="8.63934" cy="37.197" r="1.63934" fill="#00b3b3"/>
          <circle cx="16.9182" cy="37.197" r="1.63934" fill="#00b3b3"/>
          <circle cx="25.197" cy="37.197" r="1.63934" fill="#00b3b3"/>
          <circle cx="33.4758" cy="37.197" r="1.63934" fill="#00b3b3"/>
          <circle cx="41.7546" cy="37.197" r="1.63934" fill="#00b3b3"/>
          <circle cx="50.0334" cy="37.197" r="1.63934" fill="#00b3b3"/>
          <circle cx="58.3122" cy="37.197" r="1.63934" fill="#00b3b3"/>
          <circle cx="66.591" cy="37.197" r="1.63934" fill="#00b3b3"/>
          <circle cx="74.8698" cy="37.197" r="1.63934" fill="#00b3b3"/>
          <circle cx="8.63934" cy="50.4758" r="1.63934" fill="#00b3b3"/>
          <circle cx="16.9182" cy="50.4758" r="1.63934" fill="#00b3b3"/>
          <circle cx="25.197" cy="50.4758" r="1.63934" fill="#00b3b3"/>
          <circle cx="33.4758" cy="50.4758" r="1.63934" fill="#00b3b3"/>
          <circle cx="41.7546" cy="50.4758" r="1.63934" fill="#00b3b3"/>
          <circle cx="50.0334" cy="50.4758" r="1.63934" fill="#00b3b3"/>
          <circle cx="58.3122" cy="50.4758" r="1.63934" fill="#00b3b3"/>
          <circle cx="66.591" cy="50.4758" r="1.63934" fill="#00b3b3"/>
          <circle cx="74.8698" cy="50.4758" r="1.63934" fill="#00b3b3"/>
          <circle cx="8.63934" cy="63.7546" r="1.63934" fill="#00b3b3"/>
          <circle cx="16.9182" cy="63.7546" r="1.63934" fill="#00b3b3"/>
          <circle cx="25.197" cy="63.7546" r="1.63934" fill="#00b3b3"/>
          <circle cx="33.4758" cy="63.7546" r="1.63934" fill="#00b3b3"/>
          <circle cx="41.7546" cy="63.7546" r="1.63934" fill="#00b3b3"/>
          <circle cx="50.0334" cy="63.7546" r="1.63934" fill="#00b3b3"/>
          <circle cx="58.3122" cy="63.7546" r="1.63934" fill="#00b3b3"/>
          <circle cx="66.591" cy="63.7546" r="1.63934" fill="#00b3b3"/>
          <circle cx="74.8698" cy="63.7546" r="1.63934" fill="#00b3b3"/>
          <circle cx="8.63934" cy="77.0334" r="1.63934" fill="#00b3b3"/>
          <circle cx="16.9182" cy="77.0334" r="1.63934" fill="#00b3b3"/>
          <circle cx="25.197" cy="77.0334" r="1.63934" fill="#00b3b3"/>
          <circle cx="33.4758" cy="77.0334" r="1.63934" fill="#00b3b3"/>
          <circle cx="41.7546" cy="77.0334" r="1.63934" fill="#00b3b3"/>
          <circle cx="50.0334" cy="77.0334" r="1.63934" fill="#00b3b3"/>
          <circle cx="58.3122" cy="77.0334" r="1.63934" fill="#00b3b3"/>
          <circle cx="66.591" cy="77.0334" r="1.63934" fill="#00b3b3"/>
          <circle cx="74.8698" cy="77.0334" r="1.63934" fill="#00b3b3"/>
          <circle cx="8.63934" cy="90.3122" r="1.63934" fill="#00b3b3"/>
          <circle cx="16.9182" cy="90.3122" r="1.63934" fill="#00b3b3"/>
          <circle cx="25.197" cy="90.3122" r="1.63934" fill="#00b3b3"/>
          <circle cx="33.4758" cy="90.3122" r="1.63934" fill="#00b3b3"/>
          <circle cx="41.7546" cy="90.3122" r="1.63934" fill="#00b3b3"/>
          <circle cx="50.0334" cy="90.3122" r="1.63934" fill="#00b3b3"/>
          <circle cx="58.3122" cy="90.3122" r="1.63934" fill="#00b3b3"/>
          <circle cx="66.591" cy="90.3122" r="1.63934" fill="#00b3b3"/>
          <circle cx="74.8698" cy="90.3122" r="1.63934" fill="#00b3b3"/>
          <circle cx="83.1486" cy="23.9182" r="1.63934" fill="#00b3b3"/>
          <circle cx="83.1486" cy="10.6393" r="1.63934" fill="#00b3b3"/>
          <circle cx="83.1486" cy="37.197" r="1.63934" fill="#00b3b3"/>
          <circle cx="83.1486" cy="50.4758" r="1.63934" fill="#00b3b3"/>
          <circle cx="83.1486" cy="63.7546" r="1.63934" fill="#00b3b3"/>
          <circle cx="83.1486" cy="77.0334" r="1.63934" fill="#00b3b3"/>
          <circle cx="83.1486" cy="90.3122" r="1.63934" fill="#00b3b3"/>
          <circle cx="92.1486" cy="23.9182" r="1.63934" fill="#00b3b3"/>
          <circle cx="92.1486" cy="10.6393" r="1.63934" fill="#00b3b3"/>
          <circle cx="92.1486" cy="37.197" r="1.63934" fill="#00b3b3"/>
          <circle cx="92.1486" cy="50.4758" r="1.63934" fill="#00b3b3"/>
          <circle cx="92.1486" cy="63.7546" r="1.63934" fill="#00b3b3"/>
          <circle cx="92.1486" cy="77.0334" r="1.63934" fill="#00b3b3"/>
          <circle cx="92.1486" cy="90.3122" r="1.63934" fill="#00b3b3"/>
          </svg>